<?xml version="1.0" standalone="no"?>
<!DOCTYPE svg PUBLIC "-//W3C//DTD SVG 20010904//EN"
 "http://www.w3.org/TR/2001/REC-SVG-20010904/DTD/svg10.dtd">
<svg version="1.0" xmlns="http://www.w3.org/2000/svg"
 width="500.000000pt" height="500.000000pt" viewBox="0 0 500.000000 500.000000"
 preserveAspectRatio="xMidYMid meet">
<metadata>
Created by potrace 1.14, written by Peter Selinger 2001-2017
</metadata>
<g transform="translate(0.000000,500.000000) scale(0.100000,-0.100000)"
fill="#000000" stroke="none">
<path d="M2339 4806 c-2 -2 -44 -7 -93 -10 -247 -19 -535 -105 -793 -238 -347
-177 -660 -455 -870 -771 -210 -317 -354 -718 -381 -1060 -10 -135 -7 -400 7
-513 51 -416 249 -864 526 -1190 402 -475 951 -764 1555 -820 73 -6 324 -7
415 0 193 13 414 64 619 141 107 40 316 148 425 220 54 36 105 65 113 65 8 0
30 -19 48 -42 51 -63 161 -178 181 -188 37 -20 322 216 354 294 8 20 15 42 15
49 0 8 -49 66 -110 130 -60 64 -110 121 -110 126 0 5 10 18 23 28 22 17 89
104 169 218 42 60 140 237 175 314 87 194 161 456 178 631 3 36 8 83 10 105 6
57 6 369 0 435 -12 126 -17 160 -41 270 -83 367 -253 713 -484 981 -327 381
-729 636 -1191 758 -127 33 -148 37 -299 56 -92 11 -431 20 -441 11z"/>
</g>
</svg>
